When two cousins, one essentially a country bumpkin and the other a slick city boy, begin studying law together in Paris and go into competition for the same girl, it is a battle to the death. This survival of the fittest pits the two young man against each other and brings out the best and the worst in each of them. Chabrol's directorial effort is almost parable-like in its depiction of might versus right.

   General
      Complete name : Les.Cousins.1959.720p.BluRay.x264-CiNEFiLE.mkv
      Format : Matroska
      File size : 4.37 GiB
      Duration : 1h 49mn
      Overall bit rate : 5 699 Kbps
      Encoded date : UTC 2011-09-07 20:49:58
      Writing application : mkvmerge v4.9.1 ('Ich will') built on Jul 11 2011 23:53:15
      Writing library : libebml v1.2.1 + libmatroska v1.1.1
   Video #1
      ID : 1
      Format : AVC
      Format/Info : Advanced Video Codec
      Format profile : High@L4.1
      Format settings, CABAC : Yes
      Format settings, ReFrames : 5 frames
      Muxing mode : Container profile=Unknown@4.1
      Codec ID : V_MPEG4/ISO/AVC
      Duration : 1h 49mn
      Bit rate : 4 946 Kbps
      Nominal bit rate : 5 057 Kbps
      Width : 960 pixels
      Height : 720 pixels
      Display aspect ratio : 4:3
      Frame rate : 23.976 fps
      Resolution : 24 bits
      Colorimetry : 4:2:0
      Scan type : Progressive
      Bits/(Pixel*Frame) : 0.298
      Stream size : 3.79 GiB (87%)
      Writing library : x264 core 116 r2074 2641b9e     
   Audio #2
      ID : 2
      Format : AC-3
      Format/Info : Audio Coding 3
      Codec ID : A_AC3
      Duration : 1h 49mn
      Bit rate mode : Constant
      Bit rate : 640 Kbps
      Channel(s) : 1 channel
      Channel positions : C
      Sampling rate : 48.0 KHz
      Stream size : 503 MiB (11%)
      Language : French
   Text #3
      ID : 3
      Format : UTF-8
      Codec ID : S_TEXT/UTF8
      Codec ID/Info : UTF-8 Plain Text
 
http://www.imdb.com/title/tt0052708/

French audio; English subtitles in the mkv